<svg width="32" height="32" viewBox="0 0 32 32" fill="none" xmlns="http://www.w3.org/2000/svg">
<g clip-path="url(#clip0_1_3037)">
<path d="M30.72 23.5434V29.5783C30.7203 30.0104 30.5565 30.4264 30.2619 30.7425C29.9674 31.0587 29.5638 31.2512 29.1328 31.2815C28.3869 31.3328 27.7777 31.36 27.3066 31.36C12.2249 31.36 0 19.1351 0 4.05335C0 3.58231 0.0256 2.97303 0.0785066 2.22721C0.108753 1.79619 0.301366 1.39267 0.617478 1.0981C0.933591 0.803524 1.34967 0.639819 1.78176 0.640015H7.81654C8.02822 0.639801 8.23245 0.718281 8.3895 0.860209C8.54657 1.00214 8.64529 1.19738 8.66646 1.40801C8.7057 1.80055 8.74154 2.11287 8.77568 2.35009C9.11485 4.71711 9.80992 7.01925 10.8373 9.17847C10.9995 9.5198 10.8937 9.92769 10.5865 10.1462L6.90346 12.7778C9.15533 18.0248 13.3368 22.2064 18.5839 24.4583L21.2122 20.7821C21.3196 20.632 21.4764 20.5242 21.655 20.4777C21.8337 20.4312 22.023 20.4489 22.1901 20.5278C24.3491 21.5533 26.6506 22.2467 29.0167 22.5843C29.254 22.6185 29.5663 22.656 29.9555 22.6935C30.1658 22.7151 30.3606 22.814 30.5021 22.971C30.6437 23.1281 30.7219 23.3321 30.7217 23.5434H30.72Z" fill="#F15A29"/>
</g>
<defs>
<clipPath id="clip0_1_3037">
<rect width="32" height="30.72" fill="white" transform="translate(0 0.640015)"/>
</clipPath>
</defs>
</svg>
