<svg width="32" height="32" viewBox="0 0 32 32" fill="none" xmlns="http://www.w3.org/2000/svg">
<g clip-path="url(#clip0_1_3032)">
<path d="M1.58024 1.77777H30.0247C30.4439 1.77777 30.8457 1.94426 31.142 2.24061C31.4385 2.53697 31.605 2.93891 31.605 3.35801V28.642C31.605 29.0611 31.4385 29.463 31.142 29.7594C30.8457 30.0557 30.4439 30.2222 30.0247 30.2222H1.58024C1.16114 30.2222 0.759198 30.0557 0.462843 29.7594C0.16649 29.463 0 29.0611 0 28.642V3.35801C0 2.93891 0.16649 2.53697 0.462843 2.24061C0.759198 1.94426 1.16114 1.77777 1.58024 1.77777ZM15.8972 15.499L5.76474 6.89461L3.71832 9.3029L15.9179 19.6614L27.8977 9.29501L25.8308 6.90409L15.8989 15.499H15.8972Z" fill="#F15A29"/>
</g>
<defs>
<clipPath id="clip0_1_3032">
<rect width="32" height="28.4444" fill="white" transform="translate(0 1.77777)"/>
</clipPath>
</defs>
</svg>
